<svg xmlns="http://www.w3.org/2000/svg" data-name="Layer 1" viewBox="0 0 32 32" width="288" height="288"><circle cx="16" cy="16" r="5.5" fill="#3eb57b" class="color3eb57b svgShape"></circle><path fill="#82c8ec" d="M12.058,19.579a.5.5,0,0,1-.233-.942,5.208,5.208,0,0,1,1.191-.423,16.1,16.1,0,0,1,5.923-.122,7.973,7.973,0,0,1,1.3.337.5.5,0,1,1-.34.94,6.983,6.983,0,0,0-1.143-.294,15.089,15.089,0,0,0-5.509.109,4.163,4.163,0,0,0-.961.335A.5.5,0,0,1,12.058,19.579Z" class="color82c8ec svgShape"></path><path fill="#82c8ec" d="M21.49,15.9l-.1-.98a3.048,3.048,0,0,0-.13-.52l-.23-.63a4.7,4.7,0,0,0-.45-.82l-.09-.12v-.01l-.03-.03c-.01-.01-.01-.02-.02-.03l-.55-.65a5.5,5.5,0,0,0-.84-.69,4.07,4.07,0,0,0-.82-.44,3.412,3.412,0,0,0-.63-.24,3.046,3.046,0,0,0-.52-.13,5.358,5.358,0,0,0-2.16,0,3.046,3.046,0,0,0-.52.13,3.412,3.412,0,0,0-.63.24,4.07,4.07,0,0,0-.82.44,5.5,5.5,0,0,0-.84.69,4.456,4.456,0,0,0-.41.47.444.444,0,0,0-.08.11,2.257,2.257,0,0,0-.2.26,4.072,4.072,0,0,0-.44.82,3.416,3.416,0,0,0-.24.63,3.048,3.048,0,0,0-.13.52,4.591,4.591,0,0,0-.1.98.5.5,0,0,0,0,.2,4.59,4.59,0,0,0,.1.98,3.045,3.045,0,0,0,.13.52,3.414,3.414,0,0,0,.24.63,4.073,4.073,0,0,0,.44.82,2.262,2.262,0,0,0,.2.26.256.256,0,0,0,.08.11,4.457,4.457,0,0,0,.41.47,5.5,5.5,0,0,0,.84.69,4.694,4.694,0,0,0,.82.45,4.279,4.279,0,0,0,.63.23,3.046,3.046,0,0,0,.52.13,5.358,5.358,0,0,0,2.16,0,3.046,3.046,0,0,0,.52-.13,4.279,4.279,0,0,0,.63-.23,5.9,5.9,0,0,0,.82-.45,5.5,5.5,0,0,0,.84-.69,4.85,4.85,0,0,0,.55-.65c.01-.01.02-.02.02-.03l.03-.03v-.01l.09-.12a4.7,4.7,0,0,0,.45-.82,4.288,4.288,0,0,0,.23-.63,3.045,3.045,0,0,0,.13-.52,4.59,4.59,0,0,0,.1-.98.5.5,0,0,0,0-.2Zm-2.31,3.28a4.41,4.41,0,0,1-1.63,1.04,4.482,4.482,0,0,1-4.62-.94h-.01l-.1-.1a3.982,3.982,0,0,1-.58-.72,4.344,4.344,0,0,1-.71-1.96,4.178,4.178,0,0,1,0-1,4.344,4.344,0,0,1,.71-1.96,3.979,3.979,0,0,1,.58-.72l.1-.1c0,.01,0,.01.01,0a4.3,4.3,0,0,1,1.52-.94,4.431,4.431,0,0,1,3.1,0,4.41,4.41,0,0,1,1.63,1.04l.01.01a4.189,4.189,0,0,1,.66.86,4.339,4.339,0,0,1,.62,1.81,4.178,4.178,0,0,1,0,1,4.339,4.339,0,0,1-.62,1.81,4.189,4.189,0,0,1-.66.86Z" class="color82c8ec svgShape"></path><path fill="#82c8ec" d="M16.263,14.131a14.088,14.088,0,0,1-3.251-.346,5.194,5.194,0,0,1-1.187-.422.5.5,0,1,1,.467-.884,4.148,4.148,0,0,0,.957.334,15.053,15.053,0,0,0,5.509.111A6.979,6.979,0,0,0,19.9,12.63a.5.5,0,1,1,.34.94,7.968,7.968,0,0,1-1.309.338A15.044,15.044,0,0,1,16.263,14.131Z" class="color82c8ec svgShape"></path><path fill="#82c8ec" d="M18.33,15.5a11.947,11.947,0,0,0-.14-1.49,9.442,9.442,0,0,0-.19-.98,6.521,6.521,0,0,0-.45-1.25c-.37-.78-.9-1.28-1.55-1.28s-1.18.5-1.55,1.28a6.477,6.477,0,0,0-.43,1.18,9.615,9.615,0,0,0-.2.99,12.92,12.92,0,0,0-.15,1.55c-.01.17-.01.33-.01.5s0,.33.01.5a12.921,12.921,0,0,0,.15,1.55,9.614,9.614,0,0,0,.2.99,6.475,6.475,0,0,0,.43,1.18c.37.78.9,1.28,1.55,1.28s1.18-.5,1.55-1.28A6.518,6.518,0,0,0,18,18.97c.08-.32.14-.65.19-.99a11.966,11.966,0,0,0,.14-1.48c.01-.17.01-.33.01-.5S18.34,15.67,18.33,15.5Zm-1.12,2.39a8.823,8.823,0,0,1-.23,1c-.29,1.06-.71,1.61-.98,1.61s-.68-.54-.97-1.58a8.922,8.922,0,0,1-.23-.98,14.252,14.252,0,0,1-.13-1.44c-.01-.16-.01-.33-.01-.5s0-.34.01-.5a13.774,13.774,0,0,1,.13-1.43,7.262,7.262,0,0,1,.23-.99c.29-1.04.7-1.58.97-1.58s.69.55.98,1.61a7.333,7.333,0,0,1,.22.99,11.147,11.147,0,0,1,.13,1.4c.01.16.01.33.01.5s0,.34-.01.5A13.371,13.371,0,0,1,17.21,17.89Z" class="color82c8ec svgShape"></path><path fill="#82c8ec" d="M21,16.5H11a.5.5,0,0,1,0-1H21a.5.5,0,0,1,0,1Z" class="color82c8ec svgShape"></path><path fill="#55bb8c" d="M6.875,7.5h0A2.625,2.625,0,0,1,9.5,10.125V11.5a1,1,0,0,1-1,1h-7a1,1,0,0,1-1-1V10.125A2.625,2.625,0,0,1,3.125,7.5h3.75Z" class="colored456a svgShape"></path><path fill="#fcc37a" d="M6.5,6.5V7A1.5,1.5,0,0,1,5,8.5H5A1.5,1.5,0,0,1,3.5,7V6.5Z" class="colorfcc37a svgShape"></path><path fill="#ffd9aa" d="M8,4.5a3,3,0,0,1-6,0c0-.11.01-.22.02-.33a3,3,0,0,1,5.96-.01C7.99,4.27,8,4.39,8,4.5Z" class="colorffd9aa svgShape"></path><path fill="#57565d" d="M7.98,4.16l-.41-.14L5.12,3.33a1.629,1.629,0,0,0-1.11.06l-1.58.63-.41.15a3,3,0,0,1,5.96-.01Z" class="color57565d svgShape"></path><path fill="#82c8ec" d="M28.875,7.5h0A2.625,2.625,0,0,1,31.5,10.125V11.5a1,1,0,0,1-1,1h-7a1,1,0,0,1-1-1V10.125A2.625,2.625,0,0,1,25.125,7.5h3.75Z" class="color82c8ec svgShape"></path><path fill="#fcc37a" d="M28.5,6.5V7A1.5,1.5,0,0,1,27,8.5h0A1.5,1.5,0,0,1,25.5,7V6.5Z" class="colorfcc37a svgShape"></path><path fill="#ffd9aa" d="M30,4.5a3,3,0,0,1-6,0c0-.11.01-.22.02-.33a3,3,0,0,1,5.96-.01C29.99,4.27,30,4.39,30,4.5Z" class="colorffd9aa svgShape"></path><path fill="#57565d" d="M29.98,4.16l-.41-.14-2.45-.69a1.629,1.629,0,0,0-1.11.06l-1.58.63-.41.15a3,3,0,0,1,5.96-.01Z" class="color57565d svgShape"></path><path fill="#ed456a" d="M28.875,26.5h0A2.625,2.625,0,0,1,31.5,29.125V30.5a1,1,0,0,1-1,1h-7a1,1,0,0,1-1-1V29.125A2.625,2.625,0,0,1,25.125,26.5h3.75Z" class="colorfbde53 svgShape"></path><path fill="#fcc37a" d="M28.5,25.5V26A1.5,1.5,0,0,1,27,27.5h0A1.5,1.5,0,0,1,25.5,26v-.5Z" class="colorfcc37a svgShape"></path><path fill="#ffd9aa" d="M30,23.5a3,3,0,0,1-6,0c0-.11.01-.22.02-.33a3,3,0,0,1,5.96-.01C29.99,23.27,30,23.39,30,23.5Z" class="colorffd9aa svgShape"></path><path fill="#57565d" d="M29.98,23.16l-.41-.14-2.45-.69a1.629,1.629,0,0,0-1.11.06l-1.58.63-.41.15a3,3,0,0,1,5.96-.01Z" class="color57565d svgShape"></path><path fill="#fbde53" d="M6.875,26.5h0A2.625,2.625,0,0,1,9.5,29.125V30.5a1,1,0,0,1-1,1h-7a1,1,0,0,1-1-1V29.125A2.625,2.625,0,0,1,3.125,26.5h3.75Z" class="color55bb8c svgShape"></path><path fill="#fcc37a" d="M6.5,25.5V26A1.5,1.5,0,0,1,5,27.5H5A1.5,1.5,0,0,1,3.5,26v-.5Z" class="colorfcc37a svgShape"></path><path fill="#ffd9aa" d="M8,23.5a3,3,0,0,1-6,0c0-.11.01-.22.02-.33a3,3,0,0,1,5.96-.01C7.99,23.27,8,23.39,8,23.5Z" class="colorffd9aa svgShape"></path><path fill="#57565d" d="M7.98,23.16l-.41-.14-2.45-.69a1.629,1.629,0,0,0-1.11.06l-1.58.63-.41.15a3,3,0,0,1,5.96-.01Z" class="color57565d svgShape"></path><path fill="#8c8890" d="M22.04 6.72a.494.494 0 0 1-.264-.075A10.931 10.931 0 0 0 10.36 6.561.5.5 0 0 1 9.847 5.7 11.924 11.924 0 0 1 22.3 5.795a.5.5 0 0 1-.264.925zM16 27.732a11.957 11.957 0 0 1-6.154-1.71.5.5 0 0 1 .514-.857 10.929 10.929 0 0 0 11.416-.084.5.5 0 0 1 .527.85A11.954 11.954 0 0 1 16 27.732zM4.671 18.491a.5.5 0 0 1-.491-.414 12.1 12.1 0 0 1-.007-4.123.5.5 0 0 1 .986.169 11.1 11.1 0 0 0 0 3.782.5.5 0 0 1-.406.579A.522.522 0 0 1 4.671 18.491zM27.329 18.491a.522.522 0 0 1-.087-.007.5.5 0 0 1-.406-.579 11.083 11.083 0 0 0 0-3.787.5.5 0 0 1 .986-.169 12.081 12.081 0 0 1-.006 4.128A.5.5 0 0 1 27.329 18.491z" class="color8c8890 svgShape"></path></svg>